<svg version="1" xmlns="http://www.w3.org/2000/svg" width="933.333" height="933.333" viewBox="0 0 700.000000 700.000000"><path d="M33.8 7.9C9.8 15.6-4.7 41.4 1.5 65.3c4 15.4 15.6 28.5 30.5 34.4 4.1 1.6 10 1.8 61.3 2.3l56.9.5 1.8 5.2c5.7 16.2 21.1 28.8 38.5 31.3 3.9.5 27.1 1 51.8 1H287v37.5c0 34.9-.1 37.6-1.7 38.2-13.2 4.5-22.3 9.7-29.7 16.8-3.5 3.4-32.8 46.4-94.1 138.2l-89 133.2-30 .1c-16.5 0-31.5.4-33.4 1-9.9 2.8-12.1 15-3.7 20.1 3 1.8 12.2 1.9 343.9 1.9 374.4 0 345.8.5 349.2-6.1 3.3-6.4-.2-13.9-7.4-15.9-2-.5-17-1-33.6-1l-30-.1-89-133.2c-61.3-91.8-90.6-134.8-94.1-138.2-7.4-7.1-16.5-12.3-29.6-16.8-1.7-.6-1.8-3.3-1.8-38.2V140h44.8c24.6 0 47.8-.5 51.7-1 17.4-2.5 32.8-15.1 38.5-31.3l1.8-5.2 56.9-.5c51.3-.5 57.2-.7 61.3-2.3 21.6-8.6 35-31.5 31.3-53.4-1.6-9.3-7-19.7-13.6-26.2-6.8-6.7-11.4-9.6-19.6-12.1-6.2-2-9.8-2-316.5-1.9-297.2 0-310.3.1-315.8 1.8zm626.3 21.6c14.5 4.9 21.3 22 14.4 36-2.6 5.4-7.7 10.3-13.1 12.7-2.2 1-17.6 1.4-64.7 1.8l-61.9.5-2.7 3.1c-2.1 2.3-3 4.6-3.5 8.8-.3 3.2-1.2 7.2-2 9-2.1 5.1-7.7 10.7-13.1 13.2l-5 2.4h-53.8c-59 0-59.1 0-62.1 5.9-1.4 2.6-1.6 9-1.6 47.1v44h-30v-45.2l-3.4-3.4c-2.8-2.8-4.2-3.4-7.6-3.4-3.4 0-4.8.6-7.6 3.4l-3.4 3.4V214h-30v-74h21c23.4 0 26.7-.7 29.4-5.9 2-3.8 2-7.4 0-11.2-3.1-6.1-.7-5.9-88.1-5.9h-79.8l-5-2.4c-5.4-2.5-11-8.1-13.1-13.2-.8-1.8-1.7-5.8-2-9-.5-4.2-1.4-6.5-3.5-8.8l-2.7-3.1-61.9-.5-61.8-.5-4.7-2.3C24 70.9 18.7 54.6 25.5 42.1c1.6-2.9 4.5-6.6 6.4-8.2 7.5-6.2-16.9-5.7 317.7-5.8 272-.1 306.5.1 310.5 1.4zM412.4 239c3 1.2 6 2.8 6.8 3.6.7.9 7.8 14 15.8 29.2l14.6 27.7 7.2.5 7.2.5L532 402l67.9 101.5-249.6.3c-137.3.1-249.8 0-250-.2-.7-.6 166.3-249.8 170.1-253.8 4.3-4.6 9.4-7.9 16.6-10.6 5.4-2 7-2.1 62.7-2.1 55.2-.1 57.4 0 62.7 1.9z"/><path d="M271.5 289c-1.1.4-3.1 2-4.5 3.5l-2.5 2.7-.3 34.1c-.3 31.9-.1 34.5 1.8 40.8 3.7 12.4 14.1 22.2 27 25.5 16.7 4.2 34.3-4.3 42.2-20.4l3.3-6.6.3-28.8.3-28.8h21.8l.3 51.2.3 51.3 2.8 5.6c3.9 8 9.5 14 16.9 18 6 3.3 6.7 3.4 16.8 3.4 9.4 0 11.1-.3 16-2.7 8.8-4.3 13.5-9 17.7-17.6l3.8-7.6V295.1l-2.9-3c-3.7-3.9-8.3-4.8-12.8-2.7-6.5 3.1-6.2.4-6.8 62.8-.5 55.3-.6 56.7-2.6 59.4-6.5 8.8-17.5 9-23.9.6-1.9-2.6-2-4.7-2.5-59.9l-.5-57.3-3.3-3.2-3.2-3.3h-54l-3.2 3.3-3.3 3.2-.5 34.8c-.5 37.3-.5 37.3-6 41.2-4.6 3.3-9.7 3.6-14.9.8-8-4.2-8.1-4.5-8.1-42.1 0-36.5-.1-37.1-6.6-40.2-3.5-1.7-5.9-1.8-8.9-.5zM273.8 550.5c-5.4 3-7.3 10.2-4.1 15.6 3.3 5.6 5.4 5.9 36 5.9 25.8 0 28-.1 31-2 6.9-4.2 7.9-12.1 2.2-17.6l-3-2.9-29.7-.2c-24.9-.2-30.1 0-32.4 1.2zM118.4 572c-10.7 1.6-19.4 7.4-24.6 16.7l-3 5.3H67l-3.6 3.3c-3 2.7-3.7 4-3.8 7.5 0 2.7.6 5 2 6.9 3.4 4.6 7.9 5.5 26.7 5.1l16.9-.3 3.4-3.7c2.4-2.7 3.4-4.7 3.4-7 0-8.8 6.4-12.3 20.8-11.6 10 .5 13.1 2.4 15 8.9.7 2.4 1.6 5.5 2 6.8.4 1.3 2 3.3 3.5 4.5 2.7 2 4.2 2.1 33.5 2.4 16.9.2 32.1 0 33.9-.3 10.6-1.9 13.7-15.2 4.9-20.6-2.8-1.7-5.5-1.9-29.6-1.9l-26.5-.1-1.8-3.9c-2.5-5.4-9.5-12.2-15.4-15-7.7-3.6-21.3-4.8-33.9-3zM258.4 595.9c-8.1 4.9-6.5 16.5 2.9 20 3.7 1.4 17.3 1.3 21.6-.2 4.7-1.7 7.4-5.6 7.4-10.8 0-3.6-.6-4.8-3.6-7.6L283 594h-10.7c-8.8 0-11.4.4-13.9 1.9zM8.6 639c-9.5 3-11.4 15.1-3.2 20.1 2.8 1.7 5.4 1.9 27.9 1.9 26.5 0 28.7-.4 32.1-5.2 3.2-4.5 1.5-12.3-3.3-15.5-2.3-1.6-5.5-1.8-26.6-2-13.2-.1-25.3.2-26.9.7zM492.3 638.7c-2.8.6-7.2 5-8 8.1-1.1 4.3.9 9.4 4.6 11.9l3.4 2.3h54.9c60.9 0 59.1.2 62.3-6.6 3-6.4.2-12.7-6.8-15.3-2.7-1.1-105.2-1.4-110.4-.4zM642 638.7c-6.1 2-9 5.7-9 11.5 0 4 2.1 7.3 6 9.3 2.3 1.2 7.6 1.5 27.7 1.5 22.5 0 25.1-.2 27.9-1.9 8.4-5.1 6.2-17.3-3.7-20.1-3.4-1-46.1-1.3-48.9-.3z"/></svg>